<svg width="34" height="34" viewBox="0 0 34 34" fill="none" xmlns="http://www.w3.org/2000/svg">
<path d="M23.8 34H10.03C7.22501 34 5.01501 31.705 5.01501 28.985V13.6C5.01501 13.09 5.35501 12.75 5.86501 12.75C6.37501 12.75 6.71501 13.09 6.71501 13.6V28.985C6.71501 30.855 8.24501 32.3 10.03 32.3H23.8C25.67 32.3 27.115 30.77 27.115 28.985V13.6C27.115 13.09 27.455 12.75 27.965 12.75C28.475 12.75 28.815 13.09 28.815 13.6V28.985C28.815 31.705 26.52 34 23.8 34Z" fill="#BC4F00"/>
<path d="M28.305 4.165H21.845C21.42 1.785 19.38 0 16.915 0C14.45 0 12.41 1.785 11.985 4.165H5.52504C3.57004 4.165 2.04004 5.695 2.04004 7.65C2.04004 9.605 3.57004 11.05 5.52504 11.05H28.39C30.345 11.05 31.875 9.52 31.875 7.565C31.875 5.61 30.26 4.165 28.305 4.165ZM16.915 1.7C18.445 1.7 19.72 2.72 20.06 4.165H13.685C14.11 2.72 15.385 1.7 16.915 1.7ZM28.305 9.35H5.52504C4.59004 9.35 3.74004 8.585 3.74004 7.565C3.74004 6.63 4.50504 5.78 5.52504 5.78H28.39C29.325 5.78 30.175 6.545 30.175 7.565C30.09 8.585 29.325 9.35 28.305 9.35Z" fill="#BC4F00"/>
<path d="M10.965 29.835C10.455 29.835 10.115 29.495 10.115 28.985V14.79C10.115 14.28 10.455 13.94 10.965 13.94C11.475 13.94 11.815 14.28 11.815 14.79V28.985C11.815 29.41 11.39 29.835 10.965 29.835Z" fill="#BC4F00"/>
<path d="M22.865 29.835C22.355 29.835 22.015 29.495 22.015 28.985V14.79C22.015 14.28 22.355 13.94 22.865 13.94C23.375 13.94 23.715 14.28 23.715 14.79V28.985C23.715 29.41 23.29 29.835 22.865 29.835Z" fill="#BC4F00"/>
<path d="M16.9149 29.835C16.4049 29.835 16.0649 29.495 16.0649 28.985V14.79C16.0649 14.28 16.4049 13.94 16.9149 13.94C17.4249 13.94 17.7649 14.28 17.7649 14.79V28.985C17.7649 29.41 17.3399 29.835 16.9149 29.835Z" fill="#BC4F00"/>
</svg>
