<svg width="76" height="76" viewBox="0 0 76 76" fill="none" xmlns="http://www.w3.org/2000/svg">
<g clip-path="url(#clip0_111_74)">
<path d="M36.8189 8.68884C33.8914 8.68884 31.4881 10.273 30.6726 12.9434C29.5833 11.9901 27.9727 11.5666 26.4174 11.5212C22.8938 11.3692 19.4147 14.6167 19.3255 18.1403C19.3255 19.1691 19.4055 20.1387 19.7983 20.977C23.676 29.1711 28.9773 31.9549 36.8189 34.2151C41.9947 27.761 43.7286 22.3977 43.4381 14.3579C43.075 11.2594 40.0052 8.76451 36.8189 8.6842V8.68884ZM55.258 16.7255C54.2357 16.7255 53.2496 16.7257 52.4213 17.1946C44.3293 21.2796 41.7156 26.7912 39.6557 34.6874C46.2385 39.6983 51.4841 40.854 59.5132 40.3608C62.6022 39.922 65.1868 36.9281 65.1868 33.7417C65.1868 30.8127 63.1491 28.3464 60.4588 27.5961C61.3832 26.4915 61.8772 24.8957 61.8772 23.3402C61.8772 19.8151 58.7831 16.7212 55.258 16.7212V16.7255ZM16.9615 30.4374C13.862 30.8004 10.8956 33.8703 10.8151 37.0565C10.7409 39.984 12.8728 42.3866 15.5431 43.2021C14.5927 44.2914 13.6911 45.9028 13.6519 47.4582C13.5627 50.9819 16.747 53.9881 20.2711 54.0773C21.2996 54.0773 22.2687 53.9254 23.1078 53.6085C31.3011 49.7307 34.0868 44.4294 36.3462 36.5877C29.8919 31.4118 25.0006 30.1515 16.9615 30.442V30.4374ZM39.183 37.5287C34.172 44.1116 33.0162 48.8849 33.5094 56.914C33.9481 60.0034 36.9423 63.0596 40.1285 63.0596C43.0576 63.0596 45.526 61.0218 46.2749 58.3319C47.3793 59.2548 48.9748 59.7541 50.5301 59.7541C54.0552 59.7541 57.1492 56.6601 57.1492 53.1347C57.1492 52.106 57.1442 51.1254 56.6764 50.298C52.593 42.2051 47.079 39.5924 39.183 37.5315V37.5287ZM33.5094 46.5126C33.5094 46.5126 27.1255 53.2861 24.5262 55.4949C20.1073 59.9219 12.7063 60.2229 12.7063 60.2229C13.3855 62.4302 16.3777 64.9902 18.8527 67.3158C26.6647 61.5256 32.2243 52.6795 33.5094 46.5126Z" fill="#1A1A1A"/>
</g>
<defs>
<clipPath id="clip0_111_74">
<rect width="76" height="76" fill="white"/>
</clipPath>
</defs>
</svg>
